HIERARCHY
ROOT joint_0
{
	OFFSET 0.000000 0.000000 0.000000
	CHANNELS 6 Xposition Yposition Zposition Zrotation Yrotation Xrotation 
	JOINT joint_1
	{
		OFFSET 6.004005 -1.946999 100.587036
		CHANNELS 3 Zrotation Yrotation Xrotation
		JOINT joint_2
		{
			OFFSET -4.601006 -0.824997 91.925903
			CHANNELS 3 Zrotation Yrotation Xrotation
			JOINT joint_3
			{
				OFFSET -5.420998 -1.130005 91.774048
				CHANNELS 3 Zrotation Yrotation Xrotation
				JOINT joint_4
				{
					OFFSET 4.308998 -3.777992 123.473999
					CHANNELS 3 Zrotation Yrotation Xrotation
					JOINT joint_5
					{
						OFFSET 25.565002 -6.305008 79.437988
						CHANNELS 3 Zrotation Yrotation Xrotation
						End Site
						{
							OFFSET 0.000000 0.000000 0.000000
						}
					}
				}
				JOINT joint_6
				{
					OFFSET -1.750000 -28.655998 68.557983
					CHANNELS 3 Zrotation Yrotation Xrotation
					JOINT joint_7
					{
						OFFSET -17.692001 -116.544006 -17.244019
						CHANNELS 3 Zrotation Yrotation Xrotation
						JOINT joint_8
						{
							OFFSET 27.063004 -23.640991 -266.895020
							CHANNELS 3 Zrotation Yrotation Xrotation
							JOINT joint_9
							{
								OFFSET 40.722000 -15.761017 -232.488953
								CHANNELS 3 Zrotation Yrotation Xrotation
								End Site
								{
									OFFSET 0.000000 0.000000 0.000000
								}
							}
						}
					}
				}
				JOINT joint_10
				{
					OFFSET 6.593002 24.457001 69.892944
					CHANNELS 3 Zrotation Yrotation Xrotation
					JOINT joint_11
					{
						OFFSET 24.311996 114.920002 -19.872925
						CHANNELS 3 Zrotation Yrotation Xrotation
						JOINT joint_12
						{
							OFFSET 21.081001 15.319000 -268.037964
							CHANNELS 3 Zrotation Yrotation Xrotation
							JOINT joint_13
							{
								OFFSET 27.794006 -8.947001 -234.744080
								CHANNELS 3 Zrotation Yrotation Xrotation
								End Site
								{
									OFFSET 0.000000 0.000000 0.000000
								}
							}
						}
					}
				}
			}
		}
	}
	JOINT joint_14
	{
		OFFSET -6.627998 -80.520004 -98.790039
		CHANNELS 3 Zrotation Yrotation Xrotation
		JOINT joint_15
		{
			OFFSET -43.638000 -13.751999 -502.538971
			CHANNELS 3 Zrotation Yrotation Xrotation
			JOINT joint_16
			{
				OFFSET -39.532999 -9.912994 -398.071007
				CHANNELS 3 Zrotation Yrotation Xrotation
				JOINT joint_17
				{
					OFFSET 174.940004 -34.660995 -75.688002
					CHANNELS 3 Zrotation Yrotation Xrotation
					End Site
					{
						OFFSET 0.000000 0.000000 0.000000
					}
				}
			}
		}
	}
	JOINT joint_18
	{
		OFFSET 12.591003 79.842003 -98.765015
		CHANNELS 3 Zrotation Yrotation Xrotation
		JOINT joint_19
		{
			OFFSET -39.080002 -1.297001 -503.101013
			CHANNELS 3 Zrotation Yrotation Xrotation
			JOINT joint_20
			{
				OFFSET -51.570000 -0.514000 -396.815987
				CHANNELS 3 Zrotation Yrotation Xrotation
				JOINT joint_21
				{
					OFFSET 178.987999 -11.521999 -73.244003
					CHANNELS 3 Zrotation Yrotation Xrotation
					End Site
					{
						OFFSET 0.000000 0.000000 0.000000
					}
				}
			}
		}
	}
}
MOTION
Frames: 12
Frame Time: 0.016667
-1945.842041 874.943237 1104.422974 12.626165 1.574668 -2.198170 2.525862 2.048624 0.671019 3.080270 -0.405032 -0.127834 3.114511 0.381195 -0.051169 -1.387477 4.577074 4.254059 0.000000 0.000000 0.000000 -0.149039 9.627075 -4.148534 -4.819137 9.250943 0.419092 -2.780243 -33.167298 -12.118362 0.000000 0.000000 0.000000 5.551596 11.343863 9.151102 -4.959997 10.475266 3.867725 -3.286585 -35.550767 7.597764 0.000000 0.000000 0.000000 -1.153839 -5.401238 1.597343 -3.081913 27.842044 2.548373 -1.523902 1.202815 -0.355238 0.000000 0.000000 0.000000 0.627973 -33.396100 1.884775 -4.025067 64.650766 2.874974 6.933366 5.167509 2.607654 0.000000 0.000000 0.000000 
-1924.834106 876.659302 1104.134033 13.172099 1.831533 -2.500449 2.868124 1.208781 0.615282 2.964536 -0.286166 -0.130127 2.912038 0.251648 -0.042315 -1.595402 6.020676 4.819428 0.000000 0.000000 0.000000 -0.250029 9.887748 -3.797947 -5.106559 9.504134 0.611871 -2.928756 -35.585102 -12.139284 0.000000 0.000000 0.000000 5.488311 11.024144 9.136260 -4.866328 10.202799 4.011845 -3.196045 -34.349754 8.817571 0.000000 0.000000 0.000000 -1.097432 -4.782818 1.941537 -2.884499 28.228944 2.797356 -1.228206 2.549979 0.025269 0.000000 0.000000 0.000000 1.133218 -35.758576 1.318823 -4.147632 66.586015 2.955930 8.253306 3.924609 3.020058 0.000000 0.000000 0.000000 
-1903.545898 879.362793 1103.688965 13.290490 1.809980 -2.745219 3.108829 0.849632 0.654192 2.987200 -0.241058 -0.146455 2.887671 0.172776 -0.049903 -1.714107 7.106642 5.111988 0.000000 0.000000 0.000000 -0.428425 10.039372 -3.717334 -5.254535 9.547144 1.118783 -3.013300 -37.658839 -12.188965 0.000000 0.000000 0.000000 5.613184 10.779547 9.140783 -4.853188 9.993059 4.065492 -3.219883 -33.828482 9.384497 0.000000 0.000000 0.000000 -1.090920 -4.101067 2.104759 -2.717453 28.997153 3.054363 -0.955722 3.983763 0.415494 0.000000 0.000000 0.000000 1.722577 -37.202312 0.734161 -3.808217 66.782772 3.391013 9.849989 2.768907 3.538300 0.000000 0.000000 0.000000 
-1881.938843 882.832458 1103.083008 13.209836 1.707844 -2.879218 3.228417 0.735196 0.637189 3.042153 -0.210759 -0.121192 2.909875 0.134693 -0.084407 -1.748181 7.881988 5.182374 0.000000 0.000000 0.000000 -0.665552 10.112810 -3.815576 -5.283941 9.432453 1.920209 -3.021340 -39.614807 -12.214434 0.000000 0.000000 0.000000 5.844363 10.550120 9.155412 -4.868932 9.811834 3.977515 -3.299593 -33.745909 9.570184 0.000000 0.000000 0.000000 -1.119527 -3.481457 2.058344 -2.635238 30.011428 3.320487 -0.754079 5.543591 0.807615 0.000000 0.000000 0.000000 2.351686 -38.045386 0.061840 -3.070447 65.401140 4.126917 11.560021 1.451367 4.081008 0.000000 0.000000 0.000000 
-1859.713501 886.958313 1101.759033 12.931339 1.616161 -2.937722 3.322354 0.668244 0.550555 3.116710 -0.181172 -0.084815 2.969922 0.106960 -0.125866 -1.744981 8.498427 5.166429 0.000000 0.000000 0.000000 -0.912748 10.227480 -3.911459 -5.286039 9.387229 2.497454 -2.955015 -41.460344 -11.896850 0.000000 0.000000 0.000000 6.091070 10.360356 9.234928 -4.894947 9.686247 3.817738 -3.395028 -33.877254 9.434613 0.000000 0.000000 0.000000 -1.087692 -2.919206 1.859986 -2.546485 31.126569 3.580357 -0.527522 7.150136 1.222122 0.000000 0.000000 0.000000 2.716936 -38.458223 -0.427835 -2.313590 63.008514 4.777361 12.178462 0.279225 4.239023 0.000000 0.000000 0.000000 
-1836.675781 891.785828 1099.462036 12.421235 1.578192 -2.932690 3.460888 0.526543 0.373458 3.223308 -0.150748 -0.061850 3.089513 0.071103 -0.153025 -1.736792 9.056328 5.148307 0.000000 0.000000 0.000000 -1.174552 10.471064 -3.894878 -5.347395 9.580212 2.406833 -2.827900 -43.222567 -10.911213 0.000000 0.000000 0.000000 6.308860 10.227806 9.440673 -4.934146 9.648049 3.606015 -3.498125 -34.127668 8.956617 0.000000 0.000000 0.000000 -0.926247 -2.375063 1.537488 -2.365565 32.193893 3.806665 -0.187056 8.784213 1.687261 0.000000 0.000000 0.000000 2.540357 -38.514702 -0.527487 -1.880896 59.828916 5.053497 10.816483 -0.557023 3.715298 0.000000 0.000000 0.000000 
-1812.939453 897.352539 1096.409058 11.653845 1.552062 -2.858268 3.629279 0.402449 0.125897 3.371847 -0.137727 -0.045648 3.268601 0.037779 -0.176921 -1.701102 9.506109 5.077992 0.000000 0.000000 0.000000 -1.466475 10.794290 -3.825669 -5.446294 9.927689 1.826691 -2.654589 -44.904180 -9.379552 0.000000 0.000000 0.000000 6.530750 10.140882 9.743589 -4.991389 9.685257 3.325484 -3.624113 -34.569555 8.120628 0.000000 0.000000 0.000000 -0.653354 -1.846295 1.070851 -2.122802 33.257680 3.990470 0.223822 10.512974 2.203989 0.000000 0.000000 0.000000 1.881400 -38.083402 -0.279992 -1.744825 55.487870 5.035289 8.051784 -0.971647 2.724734 0.000000 0.000000 0.000000 
-1788.488037 903.164612 1092.060059 10.735070 1.568034 -2.762343 3.792225 0.323888 -0.139405 3.507295 -0.142277 -0.029299 3.425177 0.012999 -0.213312 -1.637985 9.802880 4.974264 0.000000 0.000000 0.000000 -1.655199 11.153498 -3.763463 -5.509295 10.319730 1.273538 -2.477631 -46.360547 -7.893956 0.000000 0.000000 0.000000 6.683895 10.080924 10.038844 -4.995296 9.740590 3.107837 -3.703102 -35.009149 7.145212 0.000000 0.000000 0.000000 -0.303473 -1.471383 0.490754 -1.892960 34.590473 4.231486 0.652713 12.209515 2.730175 0.000000 0.000000 0.000000 1.021484 -37.291212 0.196149 -1.752175 50.737440 4.715511 5.297785 -0.869769 1.773469 0.000000 0.000000 0.000000 
-1763.019531 908.893188 1085.848022 9.767360 1.695553 -2.634806 3.917651 0.202310 -0.516729 3.562761 -0.124588 0.052420 3.469055 -0.011452 -0.266783 -1.547001 9.938054 4.848769 0.000000 0.000000 0.000000 -1.608745 11.562608 -3.761370 -5.461303 10.716623 1.149926 -2.307012 -47.487708 -6.870322 0.000000 0.000000 0.000000 6.750366 10.059007 10.323714 -4.904224 9.811136 3.032726 -3.686233 -35.342451 6.115478 0.000000 0.000000 0.000000 0.095176 -1.280940 -0.207482 -1.697409 36.226212 4.580448 1.101399 13.846244 3.261764 0.000000 0.000000 0.000000 0.104758 -36.204248 0.812867 -1.701134 45.742913 4.008622 3.155768 -0.135670 1.078925 0.000000 0.000000 0.000000 
-1736.536987 914.728271 1077.983032 8.631308 1.887023 -2.482342 4.021488 0.094084 -0.984590 3.591635 -0.122646 0.176401 3.475008 -0.036822 -0.334997 -1.432071 9.928898 4.698691 0.000000 0.000000 0.000000 -1.376549 12.037015 -3.777629 -5.324539 11.162969 1.233791 -2.125182 -48.345182 -6.092643 0.000000 0.000000 0.000000 6.762120 10.087024 10.635008 -4.740665 9.919557 3.061765 -3.601379 -35.663671 4.941998 0.000000 0.000000 0.000000 0.569757 -1.187767 -1.017113 -1.467164 38.033293 4.962410 1.603564 15.556558 3.842350 0.000000 0.000000 0.000000 -0.968038 -34.666532 1.615094 -1.706466 40.059354 2.936170 1.233516 1.306773 0.504243 0.000000 0.000000 0.000000 
-1710.339355 920.660950 1069.354980 7.462934 2.070315 -2.333675 4.094867 0.202169 -1.334665 3.617681 -0.176409 0.237083 3.485982 -0.022959 -0.415685 -1.321661 9.708988 4.559890 0.000000 0.000000 0.000000 -1.160745 12.461364 -3.786270 -5.149367 11.560795 1.299440 -1.936157 -49.029618 -5.460653 0.000000 0.000000 0.000000 6.576261 10.072659 10.735456 -4.465936 9.931436 3.195042 -3.448296 -35.927587 3.880274 0.000000 0.000000 0.000000 1.009668 -1.564826 -1.967110 -1.370134 40.607113 5.405236 1.866856 17.343317 4.384146 0.000000 0.000000 0.000000 -1.824291 -33.288245 2.157049 -1.733853 36.184126 2.260555 0.125928 1.975630 0.158262 0.000000 0.000000 0.000000 
-1685.219971 926.844360 1060.137939 6.557159 2.300803 -2.036641 4.164025 0.488441 -1.775274 3.564650 -0.227665 0.328155 3.393808 0.049737 -0.506989 -1.238841 9.165250 4.460202 0.000000 0.000000 0.000000 -1.115530 12.739332 -3.750598 -4.985723 11.841431 1.150899 -1.747235 -49.590290 -4.898283 0.000000 0.000000 0.000000 6.015884 9.959697 10.478591 -4.046825 9.783358 3.431979 -3.210550 -36.113271 3.109876 0.000000 0.000000 0.000000 1.280572 -2.760851 -3.289763 -1.611328 44.468248 5.960870 1.387856 19.629396 4.839730 0.000000 0.000000 0.000000 -2.150632 -32.850053 1.890867 -1.580554 36.780533 2.523517 0.157747 0.022646 0.045779 0.000000 0.000000 0.000000 
